<svg width="185" height="185" viewBox="0 0 185 185" fill="none" xmlns="http://www.w3.org/2000/svg">
<path d="M77.8653 55.7835C78.1008 55.9826 78.3324 56.1865 78.5604 56.3943C78.6983 56.5168 78.8362 56.6392 78.9783 56.7655C81.6076 59.2317 82.874 62.5781 82.9937 66.135C82.9147 69.8783 81.3947 73.3597 78.6946 75.9593C77.5525 76.9246 76.255 77.6446 74.9603 78.3817C74.2912 78.7632 73.6245 79.1491 72.9575 79.5343C72.5825 79.7509 72.2073 79.9673 71.8319 80.1834C70.597 80.8947 69.3652 81.6111 68.1351 82.3309C66.5733 83.2444 65.0041 84.1446 63.4321 85.0405C61.8963 85.9159 60.3663 86.8009 58.8408 87.694C57.5722 88.4362 56.2989 89.17 55.0247 89.9023C53.5878 90.7288 52.1626 91.5677 50.7598 92.4507C53.3785 93.9822 56.0025 95.504 58.6312 97.0183C59.5459 97.5453 60.4602 98.0729 61.3746 98.6005C61.7396 98.8112 62.1047 99.0218 62.4697 99.2324C63.1998 99.6536 63.93 100.075 64.6601 100.496C64.8408 100.6 65.0215 100.705 65.2077 100.812C65.5725 101.022 65.9373 101.233 66.3021 101.443C67.2188 101.972 68.1356 102.501 69.0526 103.029C69.9631 103.554 70.8731 104.079 71.7828 104.605C72.1498 104.817 72.5169 105.029 72.8842 105.24C73.4288 105.553 73.9728 105.868 74.5166 106.183C74.7594 106.322 74.7594 106.322 75.007 106.464C78.4855 108.482 81.2068 110.945 82.4349 114.894C83.3192 118.262 83.062 121.76 81.4602 124.883C80.7382 126.107 79.9001 127.166 78.8973 128.17C78.7942 128.275 78.691 128.38 78.5847 128.489C76.0036 130.932 72.5698 131.791 69.1086 131.745C66.4541 131.662 64.1878 130.572 61.9221 129.276C61.6496 129.122 61.6496 129.122 61.3715 128.964C59.975 128.171 58.587 127.364 57.2017 126.552C55.9022 125.79 54.5959 125.041 53.2871 124.295C51.6492 123.362 50.0169 122.419 48.3897 121.467C46.6165 120.43 44.8368 119.405 43.0569 118.38C42.1422 117.853 41.2279 117.325 40.3135 116.797C39.9485 116.587 39.5834 116.376 39.2184 116.165C35.5678 114.059 31.9172 111.953 28.2666 109.847C27.9955 109.691 27.9955 109.691 27.7189 109.531C27.3544 109.321 26.9898 109.11 26.6254 108.9C25.7047 108.369 24.7837 107.838 23.8622 107.308C22.9491 106.783 22.0372 106.255 21.1257 105.727C20.6112 105.431 20.0949 105.137 19.5783 104.844C15.7855 102.675 12.9314 100.166 11.6916 95.8205C10.7821 92.2287 11.4659 88.756 13.208 85.5427C14.8783 82.7888 17.3772 81.2464 20.1265 79.7088C20.3323 79.5927 20.5379 79.4764 20.7435 79.36C21.0595 79.1812 21.3755 79.0024 21.6917 78.824C22.743 78.2308 23.7887 77.6279 24.8337 77.0235C25.1957 76.8144 25.5577 76.6054 25.9196 76.3963C26.0982 76.2931 26.2768 76.1899 26.4608 76.0836C27.3714 75.5576 28.2824 75.0322 29.1933 74.5067C29.5584 74.2961 29.9234 74.0855 30.2885 73.8749C45.6209 65.0293 45.6209 65.0293 46.1686 64.7133C46.5334 64.5029 46.8982 64.2924 47.2629 64.0819C48.1796 63.553 49.0964 63.0243 50.0135 62.496C51.7745 61.4813 53.5336 60.4638 55.2879 59.4376C57.344 58.2353 59.4108 57.0519 61.482 55.8758C61.8783 55.6492 62.2729 55.4207 62.6664 55.1893C63.6709 54.6011 64.6368 54.0536 65.7553 53.709C65.9568 53.6449 66.1584 53.5808 66.366 53.5148C70.3178 52.4491 74.6009 53.3567 77.8653 55.7835Z" fill="#4284F3"/>
<path d="M125.308 56.926C126.456 57.6023 127.612 58.2627 128.77 58.9216C130.408 59.8548 132.04 60.7975 133.667 61.7494C135.44 62.7863 137.22 63.8117 139 64.837C139.915 65.364 140.829 65.8917 141.743 66.4193C142.108 66.6299 142.473 66.8405 142.838 67.0511C147.949 69.9997 153.06 72.9482 158.171 75.8968C158.352 76.0011 158.533 76.1055 158.719 76.213C159.082 76.4226 159.446 76.6322 159.809 76.8419C160.748 77.3841 161.688 77.9255 162.629 78.4655C163.7 79.0809 164.769 79.6987 165.837 80.3196C165.96 80.391 166.084 80.4624 166.21 80.536C169.54 82.4775 172.155 85.1158 173.156 88.9125C174.011 92.4091 173.642 95.8706 171.903 99.0218C171.488 99.6707 171.04 100.278 170.555 100.875C170.445 101.017 170.335 101.159 170.222 101.306C168.733 103.102 166.533 104.146 164.539 105.277C163.81 105.691 163.085 106.111 162.359 106.531C161.81 106.849 161.26 107.166 160.71 107.482C159.611 108.116 158.512 108.75 157.413 109.384C157.048 109.594 156.683 109.805 156.318 110.016C156.137 110.12 155.956 110.224 155.77 110.332C147.921 114.86 140.072 119.388 132.224 123.916C132.043 124.02 131.862 124.124 131.676 124.232C131.312 124.442 130.947 124.652 130.583 124.863C129.472 125.503 128.362 126.144 127.252 126.785C126.704 127.102 126.155 127.418 125.606 127.734C124.925 128.126 124.245 128.521 123.567 128.917C119.767 131.131 116.032 132.466 111.621 131.368C109.689 130.824 107.848 129.858 106.361 128.507C106.237 128.399 106.114 128.291 105.986 128.179C103.516 125.883 102.162 122.699 101.944 119.36C101.841 115.704 103.093 112.198 105.613 109.516C107.426 107.676 109.831 106.515 112.054 105.25C113.08 104.667 114.101 104.077 115.122 103.487C115.487 103.276 115.852 103.065 116.217 102.855C116.398 102.751 116.579 102.646 116.765 102.539C122.788 99.0639 122.788 99.0639 123.336 98.7479C123.701 98.5376 124.065 98.3272 124.43 98.1169C125.35 97.5856 126.271 97.0547 127.193 96.5247C129.525 95.1825 131.848 93.8259 134.161 92.4507C132.708 91.5444 131.24 90.6733 129.749 89.8286C129.333 89.5919 128.917 89.3548 128.501 89.1178C128.396 89.0584 128.292 88.9989 128.184 88.9376C127.134 88.34 126.088 87.737 125.042 87.1328C124.773 86.9776 124.773 86.9776 124.499 86.8192C124.137 86.6104 123.776 86.4017 123.415 86.1929C122.504 85.6668 121.593 85.1415 120.682 84.616C120.317 84.4054 119.952 84.1948 119.587 83.9842C119.316 83.8278 119.316 83.8278 119.04 83.6683C118.492 83.3524 117.944 83.0364 117.397 82.7205C117.216 82.6162 117.035 82.5118 116.849 82.4043C116.485 82.1947 116.122 81.9851 115.759 81.7754C114.819 81.2332 113.88 80.6918 112.939 80.1517C111.868 79.5364 110.798 78.9186 109.731 78.2977C109.607 78.2263 109.484 78.1549 109.357 78.0813C106.027 76.1398 103.412 73.5015 102.412 69.7048C101.5 65.9745 102.006 62.3671 103.97 59.0855C106.098 55.9962 109 54.0461 112.687 53.2599C117.604 52.4647 121.233 54.522 125.308 56.926Z" fill="#0F9D57"/>
<path d="M77.8653 55.7835C78.1008 55.9826 78.3324 56.1865 78.5603 56.3943C78.6982 56.5168 78.8361 56.6392 78.9782 56.7655C81.6075 59.2317 82.874 62.5781 82.9936 66.135C82.9146 69.8783 81.3947 73.3597 78.6946 75.9593C77.5525 76.9246 76.2549 77.6446 74.9603 78.3817C74.2911 78.7632 73.6245 79.1491 72.9575 79.5343C72.5824 79.7509 72.2072 79.9672 71.8319 80.1834C70.5969 80.8947 69.3651 81.6111 68.1351 82.3309C66.5732 83.2444 65.004 84.1446 63.432 85.0405C61.8962 85.916 60.3663 86.8013 58.8404 87.694C57.3887 88.5429 55.9343 89.3872 54.4751 90.2232C53.7058 90.6641 52.9386 91.1055 52.1853 91.5734C52.0769 91.6396 51.9684 91.7057 51.8567 91.7739C51.5869 91.9393 51.3193 92.1083 51.052 92.2776C50.5913 92.4507 50.5913 92.4507 50.1049 92.3592C49.4799 92.0667 48.8951 91.7353 48.3061 91.3766C48.05 91.2233 47.7938 91.0701 47.5374 90.9172C47.4032 90.837 47.269 90.7568 47.1307 90.6742C46.4322 90.2609 45.7263 89.8609 45.0206 89.4601C43.7276 88.7241 42.4402 87.9789 41.1559 87.2276C39.7536 86.4073 38.3469 85.5953 36.9344 84.7926C36.1431 84.342 35.3553 83.8862 34.5711 83.4234C30.4677 81.0026 26.4157 78.689 21.4767 79.8788C20.9574 80.0172 20.4421 80.1685 19.9264 80.3196C19.6464 80.3794 19.3658 80.4372 19.084 80.4881C19.6409 80.0235 20.1942 79.6407 20.8294 79.2915C21.0882 79.1482 21.0882 79.1482 21.3523 79.002C21.5351 78.9016 21.7178 78.8013 21.9062 78.6979C23.1316 78.0185 24.3556 77.339 25.5602 76.6234C26.7346 75.9265 27.9153 75.2411 29.0985 74.5594C29.2851 74.4519 29.4716 74.3444 29.6638 74.2336C30.0464 74.0132 30.429 73.7929 30.8116 73.5726C31.7327 73.042 32.6533 72.5107 33.574 71.9794C33.939 71.7688 34.3041 71.5582 34.6691 71.3476C34.8498 71.2433 35.0305 71.1391 35.2167 71.0317C45.6209 65.0293 45.6209 65.0293 46.1685 64.7133C46.5333 64.5029 46.8981 64.2924 47.2629 64.0819C48.1796 63.553 49.0964 63.0243 50.0134 62.496C51.7744 61.4813 53.5336 60.4638 55.2879 59.4376C57.344 58.2353 59.4108 57.0519 61.482 55.8758C61.8782 55.6492 62.2728 55.4207 62.6663 55.1893C63.6709 54.6011 64.6368 54.0536 65.7552 53.709C65.9568 53.6449 66.1583 53.5808 66.366 53.5148C70.3178 52.4491 74.6009 53.3567 77.8653 55.7835Z" fill="#E94335"/>
<path d="M135.004 92.6192C135.391 92.802 135.391 92.802 135.792 93.0319C135.943 93.118 136.094 93.2041 136.25 93.2928C136.412 93.3867 136.574 93.4807 136.741 93.5775C136.998 93.7243 136.998 93.7243 137.259 93.8741C138.805 94.7609 140.344 95.6601 141.881 96.5603C144.417 98.0433 146.964 99.5069 149.518 100.958C150.316 101.413 151.11 101.875 151.901 102.343C152.08 102.45 152.26 102.556 152.445 102.665C152.79 102.869 153.135 103.075 153.48 103.281C156.479 105.054 159.959 105.894 163.406 105.022C163.883 104.886 164.354 104.733 164.826 104.582C165.106 104.521 165.387 104.463 165.669 104.413C165.246 104.888 164.776 105.164 164.224 105.475C164.034 105.583 163.843 105.691 163.647 105.802C163.546 105.859 163.445 105.915 163.34 105.974C162.802 106.276 162.265 106.581 161.728 106.886C161.619 106.948 161.51 107.01 161.398 107.073C160.401 107.638 159.412 108.214 158.424 108.794C156.969 109.646 155.508 110.487 154.043 111.321C152.405 112.255 150.773 113.197 149.145 114.149C147.372 115.186 145.593 116.212 143.813 117.237C142.898 117.764 141.984 118.292 141.069 118.819C140.704 119.03 140.339 119.24 139.974 119.451C139.793 119.555 139.613 119.659 139.427 119.767C135.959 121.768 132.49 123.768 129.022 125.769C128.842 125.874 128.661 125.978 128.474 126.086C128.111 126.295 127.748 126.504 127.385 126.713C126.539 127.201 125.694 127.689 124.851 128.182C124.555 128.355 124.259 128.527 123.962 128.7C123.592 128.915 123.223 129.131 122.854 129.348C121.482 130.146 120.073 130.939 118.524 131.329C118.38 131.367 118.236 131.404 118.088 131.443C114.492 132.241 111.01 131.571 107.877 129.687C107.332 129.329 106.843 128.945 106.361 128.507C106.237 128.399 106.114 128.291 105.986 128.179C103.516 125.883 102.162 122.699 101.944 119.36C101.841 115.704 103.093 112.198 105.613 109.516C107.426 107.676 109.831 106.515 112.054 105.25C113.08 104.667 114.101 104.077 115.122 103.487C115.487 103.276 115.852 103.065 116.217 102.855C116.398 102.751 116.579 102.646 116.765 102.539C122.788 99.0639 122.788 99.0639 123.336 98.7479C123.701 98.5376 124.065 98.3272 124.43 98.1169C125.35 97.5856 126.271 97.0547 127.193 96.5247C127.377 96.4185 127.562 96.3123 127.752 96.2029C128.118 95.992 128.485 95.7814 128.851 95.571C129.749 95.0546 130.641 94.5305 131.524 93.9895C131.778 93.835 131.778 93.835 132.038 93.6773C132.357 93.4823 132.675 93.2854 132.992 93.0861C133.134 92.9998 133.276 92.9135 133.422 92.8246C133.607 92.7097 133.607 92.7097 133.795 92.5926C134.274 92.4071 134.517 92.4662 135.004 92.6192Z" fill="#FABB04"/>
</svg>
